<svg xmlns="http://www.w3.org/2000/svg" viewBox="0 0 1168.08497 265.25434">
  <defs>
    <style>
      .cls-1 {
        fill: #b0ed2b;
      }

      .cls-2 {
        fill: #53c1b3;
      }

      .cls-3 {
        fill: #cc5858;
      }

      .cls-4 {
        fill: #f2f1f0;
      }
    </style>
  </defs>
  <title>forkmaps_w</title>
  <g id="Layer_2" data-name="Layer 2">
    <g id="Layer_1-2" data-name="Layer 1">
      <g>
        <g>
          <rect class="cls-1" x="203.8449" y="-5.98593" width="21.01938" height="84.06423" rx="2.67128" ry="2.67128" transform="translate(37.2945 162.12927) rotate(-45)"/>
          <rect class="cls-1" x="240.99292" y="3.25808" width="21.01938" height="21.00608" rx="2.67128" ry="2.67128" transform="translate(63.93283 181.86974) rotate(-45)"/>
          <rect class="cls-2" x="32.97465" y="-9.05756" width="21.00608" height="105.07039" rx="2.67128" ry="2.67128" transform="translate(-18.00901 43.47768) rotate(-45)"/>
          <rect class="cls-1" x="159.27016" y="-12.14041" width="21.01938" height="126.08969" rx="2.67128" ry="2.67128" transform="translate(13.7325 134.96205) rotate(-45)"/>
          <path class="cls-3" d="M223.67029,264.47193l11.08522-11.08522a2.67128,2.67128,0,0,0,0-3.77776l-60.09118-60.0911a2.67128,2.67128,0,0,1,1.88888-4.56016h23.25811l4.1971.00575a2.67128,2.67128,0,0,0,2.67494-2.67127l.00006-14.02148c0-3.85159-2.0768-4.32419-3.48939-4.32419H147.00312a2.67128,2.67128,0,0,0-1.88888.7824L60.22478,249.61836a2.67128,2.67128,0,0,0,0,3.77776l11.07581,11.07581a2.67128,2.67128,0,0,0,3.77776,0L86.1635,253.38672a2.67128,2.67128,0,0,1,3.77776,0l11.08522,11.08522a2.67128,2.67128,0,0,0,3.77776,0L115.88,253.39611a2.67128,2.67128,0,0,0,0-3.77775l-11.08517-11.08523a2.67128,2.67128,0,0,1,0-3.77775L115.88,223.67023a2.67128,2.67128,0,0,1,3.77776,0l40.80179,40.80171a2.67128,2.67128,0,0,0,3.77775,0l11.08522-11.08516a2.67128,2.67128,0,0,0,0-3.77776l-40.80178-40.80178a2.67128,2.67128,0,0,1,0-3.77776l11.07581-11.07581a2.67128,2.67128,0,0,1,3.77776,0l70.51825,70.51825A2.67128,2.67128,0,0,0,223.67029,264.47193Z"/>
          <rect class="cls-1" x="233.57274" y="74.47114" width="21.00608" height="42.02546" rx="2.67128" ry="2.67128" transform="translate(3.97085 200.55422) rotate(-45)"/>
          <path class="cls-2" d="M115.88006,104.80422,15.64535,205.03894a2.67128,2.67128,0,0,1-3.77776,0L.7824,193.95375a2.67128,2.67128,0,0,1,0-3.77776l25.93873-25.93873a2.67128,2.67128,0,0,0,0-3.77776L.7824,134.52077a2.67128,2.67128,0,0,1,0-3.77776l11.08519-11.08519a2.67128,2.67128,0,0,1,3.77776,0l25.93873,25.93873a2.67128,2.67128,0,0,0,3.77776,0L56.447,134.51136a2.67128,2.67128,0,0,0,0-3.77776L.79175,75.07833a2.67128,2.67128,0,0,1,0-3.77776L11.13994,60.95238h0c.91487-.941,3.29285-1.96975,4.91937-.32792.07958.08033-.00711.00711-.00711.00711L71.30063,115.88a2.67128,2.67128,0,0,0,3.77776,0l25.93873-25.93873a2.67128,2.67128,0,0,1,3.77776,0l11.08519,11.08519A2.67128,2.67128,0,0,1,115.88006,104.80422Z"/>
          <path class="cls-4" d="M226.70961,122.69714a2.67128,2.67128,0,0,0-1.88886-.7824l-60.16912,0h0a2.67128,2.67128,0,0,1-1.8889-4.56015L175.313,104.80422a2.67128,2.67128,0,0,0,0-3.77776L75.07833.79175a2.67128,2.67128,0,0,0-3.77776,0L60.22479,11.86753a2.67128,2.67128,0,0,0,0,3.77776L145.606,101.02647a2.67128,2.67128,0,0,1,0,3.77776L.79181,249.61838a2.67128,2.67128,0,0,0,0,3.77776l11.07578,11.07578a2.67128,2.67128,0,0,0,3.77776,0l120.7636-120.7636a2.67128,2.67128,0,0,1,1.88888-.7824h19.48169l6.87206.00941,2.26567-.00941H216.106a2.67128,2.67128,0,0,1,1.88888.7824L249.609,175.32245a2.67128,2.67128,0,0,0,3.77776,0L264.472,164.23726a2.67128,2.67128,0,0,0,0-3.77776Z"/>
          <rect class="cls-3" x="233.56144" y="193.34186" width="21.01938" height="42.02546" rx="2.67128" ry="2.67128" transform="translate(-80.0848 235.36736) rotate(-45)"/>
        </g>
        <g>
          <path class="cls-4" d="M339.85769,103.01819V128.3845h40.68087c5.7432,0,11.48641,5.7432,11.48641,11.32671,0,5.26477-5.7432,9.572-11.48641,9.572H339.85769v33.50235c0,5.58351-3.9885,9.89075-9.572,9.89075-7.01947,0-11.32671-4.30724-11.32671-9.89075v-90.615c0-5.74385,4.30724-9.8914,11.32671-9.8914h55.99608c7.01947,0,11.16767,4.14755,11.16767,9.8914a11.01646,11.01646,0,0,1-11.16767,10.84763Z"/>
          <path class="cls-4" d="M471.31585,194.272c-29.51385,1.27627-60.14427-18.34683-60.14427-57.432,0-39.24555,30.63042-58.54926,60.14427-58.54926,27.91819,1.436,57.11265,20.73967,57.11265,58.54926C528.42851,174.64887,499.234,194.272,471.31585,194.272ZM469.5605,99.03034c-17.86775,0-37.3305,12.603-37.3305,37.80959,0,25.04627,19.46276,37.80894,37.3305,37.80894,18.34683,0,37.96929-12.76268,37.96929-37.80894C507.52979,111.63332,487.90733,99.03034,469.5605,99.03034Z"/>
          <path class="cls-4" d="M565.12412,182.30648c0,13.87925-21.21811,14.35834-21.21811.31939v-90.615a9.53567,9.53567,0,0,1,9.57266-9.7317h42.43557c40.52182,0,48.81691,54.24137,14.99647,67.80188l21.21746,25.8441c8.29574,12.28424-8.29574,24.08939-17.86775,11.9655L590.171,153.43141H565.12412Zm0-47.2219h30.79012c20.739,0,22.01529-33.5017,0-33.5017H565.12412Z"/>
          <path class="cls-4" d="M687.96845,143.85875l-15.15552,16.75118v22.33468c0,13.24111-21.05907,13.40081-21.05907,0V91.85117c0-13.56051,21.05907-14.03894,21.05907,0v40.52117L718.91827,84.8317c5.58286-5.26477,11.167-3.9885,15.15552,0,4.46629,4.30724,4.46629,9.8914,0,14.19864-9.413,11.167-20.42028,21.05842-30.63042,32.22543l37.32985,45.14845c9.57266,13.24111-10.84763,22.81312-17.229,12.603Z"/>
          <path class="cls-4" d="M770.71487,122.64129v59.02705c0,7.01947-5.74385,11.008-11.48576,11.008-5.10507,0-9.57266-3.9885-9.57266-11.008V91.85117a10.61263,10.61263,0,0,1,9.57266-11.008c4.626,0,7.33757,2.71223,10.0498,5.7432l35.09671,47.3816,36.37428-49.1363c5.26477-6.541,18.18714-3.9885,18.18714,7.01947v89.81717c0,7.01947-4.46759,11.008-9.57266,11.008-5.74256,0-10.21014-3.9885-10.21014-11.008V122.64129L812.672,156.143c-5.74385,7.01947-12.92237,7.01947-18.18714,0Z"/>
          <path class="cls-4" d="M873.56542,192.67632c-5.10507-2.87193-8.29509-8.61448-5.10507-15.31521l45.78594-89.49843c4.30789-8.45479,15.7943-8.77418,19.7828,0l44.98746,89.49843c6.541,12.44328-12.76268,22.33468-18.50523,9.89075l-7.02012-14.03894h-58.868l-6.85913,14.03894C885.21152,192.67632,879.308,193.79289,873.56542,192.67632Zm68.59906-40.52117L924.137,112.74989l-19.6218,39.40525Z"/>
          <path class="cls-4" d="M989.70837,91.85117a10.97642,10.97642,0,0,1,10.84892-11.008h36.85207c20.73967,0,39.4046,13.8799,39.4046,40.52182,0,25.206-18.66493,39.24491-39.4046,39.24491h-26.64192v21.05842c0,7.01947-4.46759,11.008-10.21014,11.008a10.77783,10.77783,0,0,1-10.84892-11.008Zm21.05907,9.09357v39.724h26.64192c10.68793,0,19.144-9.413,19.144-19.30371,0-11.16767-8.45609-20.42028-19.144-20.42028Z"/>
          <path class="cls-4" d="M1083.838,106.20951c3.66911-30.94981,50.41192-36.53332,72.42786-19.6231,10.84763,8.77418-.63748,22.65408-10.21014,15.6346-11.8058-7.49791-38.60742-11.008-41.95714,5.58351-4.30789,26.16349,65.08965,11.16767,63.97308,53.60324-1.11657,40.52182-59.82488,41.4787-81.84082,23.29156a11.80847,11.80847,0,0,1-2.23314-15.634c4.1469-4.14755,8.77418-5.58351,14.19734-1.11657,13.08207,8.93387,46.74411,15.634,49.137-7.01947C1145.25852,137.31837,1078.8926,151.51636,1083.838,106.20951Z"/>
        </g>
      </g>
    </g>
  </g>
</svg>
