<svg version="1" xmlns="http://www.w3.org/2000/svg" width="694.667" height="694.667" viewBox="0 0 521.000000 521.000000"><path d="M319.1 1.1c-2.5.5-6.8 4.1-17.3 14.6-7.7 7.6-14.6 15.1-15.5 16.7-3.7 7.1-8.4 1.9 96 106.4 101.5 101.5 98.3 98.5 105.4 96.8 3-.8 32.2-29.7 32.4-32.1.1-.8.1-2.4.1-3.5s0-2.8-.1-3.7C520 193.9 330.4 4.3 326 2.1c-2.5-1.3-4.5-1.6-6.9-1zM140.3 14.2c-7.4 7.3-14.3 14.5-15.3 15.9-2.6 3.6-3.2 7.6-1.6 11.3.8 1.7 34.9 36.6 76.5 78.1 78.5 78.4 77.5 77.3 75.6 83.7-.4 1.2-62.3 64-137.6 139.3C62.6 417.9.9 480.3.9 481.3c-.2 2.2-.2 4.2 0 6.4.1 2 27.5 29.9 31.1 31.7 2.1 1.1 5.4 1.3 9.4.7.4 0 61.8-61.1 136.4-135.6 74.5-74.6 136.7-136.4 138.1-137.4 1.4-.9 3.5-1.7 4.6-1.6 1.1.1 2.9.2 4 .3 1.1.1 33.5 31.8 78 76.2 41.8 41.8 76.8 76.1 77.8 76.1 2.2.2 4.1.2 6.8 0 2.8-.1 31.6-29 32.5-32.5 1.8-7.1 9.6 1-178.4-186.9L163.5 1h-9.7l-13.5 13.2zM478.5 2.9c-1.6 1-9.1 8-16.5 15.5L448.5 32v10.1l15.6 15.4C478.6 72 479.9 73 483.4 73c2 0 4.7-.5 5.9-1.1 3.8-2 29.6-28.7 30.3-31.3 1.5-6.1-.1-8.6-14.9-23.3-7.8-7.7-15.2-14.6-16.4-15.2-3.2-1.6-6.4-1.3-9.8.8z"/><path d="M32.4 42.5C28.9 44 2.2 70.5.9 73.8.4 75 .2 77.1.4 78.3c.3 1.2.5 2.9.5 3.7.1.8 25.3 26.7 56.1 57.5 51.2 51.2 56 56.3 56 59.3 0 1.8-.6 4.5-1.4 6-1.6 2.9-28.7 30.2-30.2 30.3-.5 0-1.8.2-2.9.5-4.3.8-8.3-2.1-22.3-16.1-8-8-15.1-14.6-15.8-14.6-.8-.1-2.4-.2-3.6-.3-4-.4-7.4 2.1-18.7 13.4-19 19.2-18 17.7-17.3 26.3.1 1 7 8.6 15.2 16.9 8.3 8.3 15 15.6 15.1 16.2 0 .6.2 2 .4 3 .7 3.9-2.5 8.3-15.5 21.1-7.2 7.1-13.8 14.2-14.5 15.6-.8 1.5-1.2 4.2-.9 6.5.4 3.5 2.1 5.6 15.4 18.9l15 15h11l75.5-75.5c80.4-80.4 79.3-79.2 76.6-85.7C192.7 192.8 42.1 42 40 41.9c-.8 0-2.2-.2-3.1-.4-.8-.1-2.9.3-4.5 1zM318.8 326.7c-2 .3-22.3 20-78.7 76.5-80 80-78.6 78.4-76.6 85 1 3.1 28 30.4 31.6 31.9 7.3 2.9 5.9 4.1 65.7-55.6 55-55.1 56.6-56.5 62.7-56.3 1.3 0 22.3 20.3 57.5 55.4 30.5 30.4 56.8 55.8 58.3 56.3 2 .8 4 .8 7-.1 3.4-1 6.8-3.8 18-15.3 14.9-15.3 16.7-18.4 14.2-24.1C477 477.2 327.1 327 325.3 327c-.6 0-1.7-.2-2.5-.3-.7-.2-2.5-.2-4 0z"/></svg>